# xmcd
#
# Track frame offsets: 
#        150
#        21595
#        42350
#        70954
#        101578
#        134914
#        162666
#        193219
#
# Disc length: 3113 seconds
#
# Revision: 0
# Processed by: cddbd v1.5.2PL0 Copyright (c) Steve Scherf et al.
# Submitted via: ExactAudioCopy v0.95b4
#
DISCID=800c2708
DTITLE=Eric Clapton - 1993-10-14 - Rainbow Night - CD2
DYEAR=1993
DGENRE=Blues
TTITLE0=Circus Left Town
TTITLE1=Tears In Heaven
TTITLE2=Crossroads
TTITLE3=Tearing Us Apart
TTITLE4=Groaning The Blues
TTITLE5=Cocaine
TTITLE6=Ain't Nobody's Business
TTITLE7=Layla
EXTD=
EXTT0=
EXTT1=
EXTT2=
EXTT3=
EXTT4=
EXTT5=
EXTT6=
EXTT7=
PLAYORDER=
